<mxfile host="Electron" agent="Mozilla/5.0 (Windows NT 10.0; Win64; x64) AppleWebKit/537.36 (KHTML, like Gecko) draw.io/28.1.2 Chrome/138.0.7204.243 Electron/37.4.0 Safari/537.36" version="28.1.2">
  <diagram name="Trang-1" id="DTCxs_nZmMCg-X5ghcwi">
    <mxGraphModel dx="2722" dy="1138" grid="1" gridSize="10" guides="1" tooltips="1" connect="1" arrows="1" fold="1" page="1" pageScale="1" pageWidth="827" pageHeight="1169" math="0" shadow="0">
      <root>
        <mxCell id="0" />
        <mxCell id="1" parent="0" />
        <mxCell id="aPTDOeBRYRJPnSvz2wNt-1" value="" style="whiteSpace=wrap;html=1;aspect=fixed;dashed=1;dashPattern=8 8;" vertex="1" parent="1">
          <mxGeometry x="105" y="230" width="710" height="710" as="geometry" />
        </mxCell>
        <mxCell id="hdq7vbkm2n31hhVxaUAm-3" value="" style="edgeStyle=orthogonalEdgeStyle;rounded=0;orthogonalLoop=1;jettySize=auto;html=1;entryX=0.5;entryY=0;entryDx=0;entryDy=0;" parent="1" source="hdq7vbkm2n31hhVxaUAm-1" target="hdq7vbkm2n31hhVxaUAm-4" edge="1">
          <mxGeometry relative="1" as="geometry">
            <mxPoint x="430" y="170" as="targetPoint" />
          </mxGeometry>
        </mxCell>
        <mxCell id="hdq7vbkm2n31hhVxaUAm-1" value="int [] Sort(int []a)" style="ellipse;whiteSpace=wrap;html=1;" parent="1" vertex="1">
          <mxGeometry x="340" y="10" width="120" height="80" as="geometry" />
        </mxCell>
        <mxCell id="u2Fn5Y2H-FF-AafpsGOU-29" style="edgeStyle=orthogonalEdgeStyle;rounded=0;orthogonalLoop=1;jettySize=auto;html=1;exitX=0.5;exitY=1;exitDx=0;exitDy=0;entryX=0.5;entryY=0;entryDx=0;entryDy=0;" parent="1" source="hdq7vbkm2n31hhVxaUAm-4" target="u2Fn5Y2H-FF-AafpsGOU-1" edge="1">
          <mxGeometry relative="1" as="geometry" />
        </mxCell>
        <mxCell id="hdq7vbkm2n31hhVxaUAm-4" value="int low = o , high = a.legnth - 1" style="rounded=0;whiteSpace=wrap;html=1;" parent="1" vertex="1">
          <mxGeometry x="360" y="170" width="200" height="40" as="geometry" />
        </mxCell>
        <mxCell id="u2Fn5Y2H-FF-AafpsGOU-3" style="edgeStyle=orthogonalEdgeStyle;rounded=0;orthogonalLoop=1;jettySize=auto;html=1;exitX=0;exitY=0.5;exitDx=0;exitDy=0;entryX=0.5;entryY=0;entryDx=0;entryDy=0;" parent="1" source="u2Fn5Y2H-FF-AafpsGOU-1" target="u2Fn5Y2H-FF-AafpsGOU-2" edge="1">
          <mxGeometry relative="1" as="geometry" />
        </mxCell>
        <mxCell id="u2Fn5Y2H-FF-AafpsGOU-4" value="FALSE" style="edgeLabel;html=1;align=center;verticalAlign=middle;resizable=0;points=[];" parent="u2Fn5Y2H-FF-AafpsGOU-3" vertex="1" connectable="0">
          <mxGeometry x="-0.4774" y="-7" relative="1" as="geometry">
            <mxPoint as="offset" />
          </mxGeometry>
        </mxCell>
        <mxCell id="u2Fn5Y2H-FF-AafpsGOU-1" value="low&amp;lt;=high" style="rhombus;whiteSpace=wrap;html=1;" parent="1" vertex="1">
          <mxGeometry x="390" y="240" width="190" height="80" as="geometry" />
        </mxCell>
        <mxCell id="u2Fn5Y2H-FF-AafpsGOU-2" value="return a[]" style="ellipse;whiteSpace=wrap;html=1;" parent="1" vertex="1">
          <mxGeometry x="-170" y="480" width="120" height="80" as="geometry" />
        </mxCell>
        <mxCell id="u2Fn5Y2H-FF-AafpsGOU-10" style="edgeStyle=orthogonalEdgeStyle;rounded=0;orthogonalLoop=1;jettySize=auto;html=1;exitX=0.75;exitY=1;exitDx=0;exitDy=0;entryX=0.5;entryY=0;entryDx=0;entryDy=0;" parent="1" source="u2Fn5Y2H-FF-AafpsGOU-5" target="u2Fn5Y2H-FF-AafpsGOU-9" edge="1">
          <mxGeometry relative="1" as="geometry" />
        </mxCell>
        <mxCell id="u2Fn5Y2H-FF-AafpsGOU-5" value="&lt;div&gt;mid &amp;lt;- low + (high - low) / 2;&lt;/div&gt;" style="rounded=0;whiteSpace=wrap;html=1;" parent="1" vertex="1">
          <mxGeometry x="340" y="380" width="260" height="30" as="geometry" />
        </mxCell>
        <mxCell id="u2Fn5Y2H-FF-AafpsGOU-7" style="edgeStyle=orthogonalEdgeStyle;rounded=0;orthogonalLoop=1;jettySize=auto;html=1;exitX=0.5;exitY=1;exitDx=0;exitDy=0;entryX=0.547;entryY=0.133;entryDx=0;entryDy=0;entryPerimeter=0;" parent="1" source="u2Fn5Y2H-FF-AafpsGOU-1" target="u2Fn5Y2H-FF-AafpsGOU-5" edge="1">
          <mxGeometry relative="1" as="geometry" />
        </mxCell>
        <mxCell id="u2Fn5Y2H-FF-AafpsGOU-8" value="TRUE" style="edgeLabel;html=1;align=center;verticalAlign=middle;resizable=0;points=[];" parent="u2Fn5Y2H-FF-AafpsGOU-7" vertex="1" connectable="0">
          <mxGeometry x="-0.3333" y="2" relative="1" as="geometry">
            <mxPoint as="offset" />
          </mxGeometry>
        </mxCell>
        <mxCell id="u2Fn5Y2H-FF-AafpsGOU-12" style="edgeStyle=orthogonalEdgeStyle;rounded=0;orthogonalLoop=1;jettySize=auto;html=1;exitX=1;exitY=0.5;exitDx=0;exitDy=0;entryX=0.5;entryY=0;entryDx=0;entryDy=0;" parent="1" source="u2Fn5Y2H-FF-AafpsGOU-9" target="u2Fn5Y2H-FF-AafpsGOU-11" edge="1">
          <mxGeometry relative="1" as="geometry" />
        </mxCell>
        <mxCell id="u2Fn5Y2H-FF-AafpsGOU-13" style="edgeStyle=orthogonalEdgeStyle;rounded=0;orthogonalLoop=1;jettySize=auto;html=1;exitX=0;exitY=0.5;exitDx=0;exitDy=0;" parent="1" source="u2Fn5Y2H-FF-AafpsGOU-9" edge="1">
          <mxGeometry relative="1" as="geometry">
            <mxPoint x="420" y="650" as="targetPoint" />
          </mxGeometry>
        </mxCell>
        <mxCell id="u2Fn5Y2H-FF-AafpsGOU-15" value="FALSE" style="edgeLabel;html=1;align=center;verticalAlign=middle;resizable=0;points=[];" parent="u2Fn5Y2H-FF-AafpsGOU-13" vertex="1" connectable="0">
          <mxGeometry x="-0.0889" y="-1" relative="1" as="geometry">
            <mxPoint as="offset" />
          </mxGeometry>
        </mxCell>
        <mxCell id="u2Fn5Y2H-FF-AafpsGOU-9" value="a[mid] = 0" style="rhombus;whiteSpace=wrap;html=1;" parent="1" vertex="1">
          <mxGeometry x="450" y="460" width="160" height="80" as="geometry" />
        </mxCell>
        <mxCell id="u2Fn5Y2H-FF-AafpsGOU-19" style="edgeStyle=orthogonalEdgeStyle;rounded=0;orthogonalLoop=1;jettySize=auto;html=1;exitX=0.75;exitY=0;exitDx=0;exitDy=0;entryX=1;entryY=0.5;entryDx=0;entryDy=0;" parent="1" source="u2Fn5Y2H-FF-AafpsGOU-11" target="u2Fn5Y2H-FF-AafpsGOU-1" edge="1">
          <mxGeometry relative="1" as="geometry" />
        </mxCell>
        <mxCell id="u2Fn5Y2H-FF-AafpsGOU-11" value="int temp &amp;lt;- a[low],&lt;br&gt;a[low] &amp;lt;- a[mid]&lt;br&gt;a[mid[ &amp;lt;- a[high]&lt;br&gt;a[high] &amp;lt;- temp&lt;br&gt;low ++&lt;br&gt;mid++" style="rounded=0;whiteSpace=wrap;html=1;" parent="1" vertex="1">
          <mxGeometry x="650" y="560" width="120" height="125" as="geometry" />
        </mxCell>
        <mxCell id="u2Fn5Y2H-FF-AafpsGOU-14" value="TRUE" style="text;html=1;align=center;verticalAlign=middle;resizable=0;points=[];autosize=1;strokeColor=none;fillColor=none;" parent="1" vertex="1">
          <mxGeometry x="600" y="478" width="60" height="30" as="geometry" />
        </mxCell>
        <mxCell id="u2Fn5Y2H-FF-AafpsGOU-25" style="edgeStyle=orthogonalEdgeStyle;rounded=0;orthogonalLoop=1;jettySize=auto;html=1;exitX=0;exitY=0;exitDx=0;exitDy=0;entryX=1;entryY=0.5;entryDx=0;entryDy=0;" parent="1" source="u2Fn5Y2H-FF-AafpsGOU-17" target="u2Fn5Y2H-FF-AafpsGOU-24" edge="1">
          <mxGeometry relative="1" as="geometry">
            <Array as="points">
              <mxPoint x="400" y="640" />
            </Array>
          </mxGeometry>
        </mxCell>
        <mxCell id="u2Fn5Y2H-FF-AafpsGOU-17" value="a[mid] = 1" style="rhombus;whiteSpace=wrap;html=1;" parent="1" vertex="1">
          <mxGeometry x="380" y="648" width="80" height="80" as="geometry" />
        </mxCell>
        <mxCell id="u2Fn5Y2H-FF-AafpsGOU-21" style="edgeStyle=orthogonalEdgeStyle;rounded=0;orthogonalLoop=1;jettySize=auto;html=1;exitX=0;exitY=0;exitDx=0;exitDy=0;entryX=0.403;entryY=0.912;entryDx=0;entryDy=0;entryPerimeter=0;" parent="1" source="u2Fn5Y2H-FF-AafpsGOU-18" target="u2Fn5Y2H-FF-AafpsGOU-1" edge="1">
          <mxGeometry relative="1" as="geometry">
            <Array as="points">
              <mxPoint x="310" y="320" />
              <mxPoint x="437" y="320" />
              <mxPoint x="437" y="313" />
            </Array>
          </mxGeometry>
        </mxCell>
        <mxCell id="u2Fn5Y2H-FF-AafpsGOU-18" value="mid ++" style="rounded=0;whiteSpace=wrap;html=1;" parent="1" vertex="1">
          <mxGeometry x="310" y="780" width="120" height="60" as="geometry" />
        </mxCell>
        <mxCell id="u2Fn5Y2H-FF-AafpsGOU-20" style="edgeStyle=orthogonalEdgeStyle;rounded=0;orthogonalLoop=1;jettySize=auto;html=1;exitX=0;exitY=1;exitDx=0;exitDy=0;entryX=0.36;entryY=-0.004;entryDx=0;entryDy=0;entryPerimeter=0;" parent="1" source="u2Fn5Y2H-FF-AafpsGOU-17" target="u2Fn5Y2H-FF-AafpsGOU-18" edge="1">
          <mxGeometry relative="1" as="geometry">
            <Array as="points">
              <mxPoint x="353" y="710" />
            </Array>
          </mxGeometry>
        </mxCell>
        <mxCell id="u2Fn5Y2H-FF-AafpsGOU-27" value="TRUE" style="edgeLabel;html=1;align=center;verticalAlign=middle;resizable=0;points=[];" parent="u2Fn5Y2H-FF-AafpsGOU-20" vertex="1" connectable="0">
          <mxGeometry x="-0.4122" y="3" relative="1" as="geometry">
            <mxPoint x="-16" y="17" as="offset" />
          </mxGeometry>
        </mxCell>
        <mxCell id="u2Fn5Y2H-FF-AafpsGOU-28" style="edgeStyle=orthogonalEdgeStyle;rounded=0;orthogonalLoop=1;jettySize=auto;html=1;exitX=0.5;exitY=0;exitDx=0;exitDy=0;entryX=0;entryY=1;entryDx=0;entryDy=0;" parent="1" source="u2Fn5Y2H-FF-AafpsGOU-24" target="u2Fn5Y2H-FF-AafpsGOU-1" edge="1">
          <mxGeometry relative="1" as="geometry">
            <Array as="points">
              <mxPoint x="180" y="300" />
            </Array>
          </mxGeometry>
        </mxCell>
        <mxCell id="u2Fn5Y2H-FF-AafpsGOU-24" value="temp &amp;lt;- a[mid]&lt;br&gt;a[mid]&amp;lt;- a[high]&lt;br&gt;a[[high] &amp;lt;- temp&lt;br&gt;high --" style="rounded=0;whiteSpace=wrap;html=1;" parent="1" vertex="1">
          <mxGeometry x="120" y="610" width="120" height="60" as="geometry" />
        </mxCell>
        <mxCell id="u2Fn5Y2H-FF-AafpsGOU-26" value="FASLE" style="text;html=1;align=center;verticalAlign=middle;resizable=0;points=[];autosize=1;strokeColor=none;fillColor=none;" parent="1" vertex="1">
          <mxGeometry x="320" y="618" width="60" height="30" as="geometry" />
        </mxCell>
      </root>
    </mxGraphModel>
  </diagram>
</mxfile>
